<svg xmlns="http://www.w3.org/2000/svg" version="1.1" xmlns:xlink="http://www.w3.org/1999/xlink" xmlns:svgjs="http://svgjs.dev/svgjs" width="1440" height="560" preserveAspectRatio="none" viewBox="0 0 1440 560"><g mask="url(&quot;#SvgjsMask1092&quot;)" fill="none"><rect width="1440" height="560" x="0" y="0" fill="rgba(17, 17, 17, 1)"></rect><path d="M0,461.729C85.89,481.005,175.905,436.202,246.778,383.994C315.32,333.503,355.932,255.991,386.927,176.703C416.598,100.801,426.583,20.807,420.522,-60.462C414.109,-146.449,412.008,-243.201,351.062,-304.197C290.664,-364.644,193.863,-360.21,109.231,-372.007C35.982,-382.217,-36.457,-386.506,-108.114,-368.204C-181.775,-349.39,-254.051,-320.602,-306.712,-265.768C-360.879,-209.366,-390.335,-135.006,-405.71,-58.332C-421.73,21.561,-440.222,112.352,-396.296,180.982C-352.851,248.86,-250.325,240.601,-184.564,287.188C-114.042,337.148,-84.327,442.803,0,461.729" fill="#0b0b0b"></path><path d="M1440 983.027C1520.1680000000001 964.864 1598.948 957.265 1674.51 924.905 1763.406 886.835 1858.142 854.238 1918.031 778.309 1986.033 692.095 2063.2960000000003 579.653 2029.143 475.294 1994.0140000000001 367.952 1830.692 370.909 1756.759 285.526 1682.783 200.09300000000002 1711.545 33.37900000000002 1607.762-11.346000000000004 1507.122-54.716999999999985 1406.452 56.82299999999998 1301.843 89.47899999999998 1199.547 121.41199999999998 1078.7440000000001 106.118 999.6949999999999 178.474 918.176 253.08999999999997 880.208 368.51300000000003 876.335 478.957 872.649 584.065 936.817 674.19 978.932 770.563 1021.837 868.744 1028.253 1004.431 1125.564 1049.2730000000001 1224.856 1095.028 1333.375 1007.184 1440 983.027" fill="#171717"></path></g><defs><mask id="SvgjsMask1092"><rect width="1440" height="560" fill="#ffffff"></rect></mask></defs></svg>